<svg xmlns="http://www.w3.org/2000/svg" width="760" height="620" viewBox="0 0 760 620"><rect width="100%" height="100%" fill="#f7fafc"/><defs><marker id="a" viewBox="0 0 10 10" refX="5" refY="5" markerWidth="6" markerHeight="6" orient="auto-start-reverse"><path d="M0 0 10 5 0 10Z" fill="#21648f"/></marker></defs><g font-family="Arial, sans-serif"><text x="28.00" y="40.00" font-size="25" fill="#173041" text-anchor="start">DISPLAY MODULE / TOP VIEW</text><text x="28.00" y="69.00" font-size="15" fill="#526d7c" text-anchor="start">Window and top button in the current parametric assembly.</text><rect x="107.0" y="121.0" width="486.0" height="342.0" rx="63.0" fill="#dce5e9" stroke="#173041" stroke-width="1.5"/><rect x="143.0" y="166.0" width="252.0" height="252.0" rx="10.799999999999999" fill="#668c94" stroke="#173041" stroke-width="1.5"/><rect x="161.0" y="184.0" width="216.0" height="216.0" rx="5" fill="#092530" stroke="#173041" stroke-width="1.5"/><text x="269.00" y="259.00" font-size="14" fill="#c5e0e1" text-anchor="middle">NE / 045°</text><text x="269.00" y="299.00" font-size="26" fill="#f5ffff" text-anchor="middle">11.5 m</text><text x="269.00" y="337.00" font-size="10" fill="#c5e0e1" text-anchor="middle">2 m shallower · simulated</text><circle cx="503.0" cy="292" r="58.5" fill="#67808d" stroke="#173041"/><circle cx="503.0" cy="292" r="55.800000000000004" fill="#dc7563" stroke="#173041"/><path d="M107.00,121.00L107.00,117.00" fill="none" stroke="#21648f" stroke-width="1.2"/><path d="M593.00,121.00L593.00,117.00" fill="none" stroke="#21648f" stroke-width="1.2"/><path d="M107.0,112H593.0" stroke="#21648f" marker-start="url(#a)" marker-end="url(#a)"/><text x="350.00" y="103.00" font-size="15" fill="#21648f" text-anchor="middle">54.0 housing</text><path d="M593.00,121.00L610.00,121.00" fill="none" stroke="#21648f" stroke-width="1.2"/><path d="M593.00,463.00L610.00,463.00" fill="none" stroke="#21648f" stroke-width="1.2"/><path d="M605,121.0V463.0" stroke="#21648f" marker-start="url(#a)" marker-end="url(#a)"/><text x="627.00" y="292.00" font-size="15" fill="#21648f" text-anchor="middle" transform="rotate(-90 627 292.0)">38.0 housing</text><path d="M269.00,418.00L269.00,490.00" fill="none" stroke="#173041" stroke-width="1.2"/><text x="274.00" y="484.00" font-size="14" fill="#173041" text-anchor="start">28 x 28 window</text><path d="M503.00,347.80L503.00,510.00" fill="none" stroke="#173041" stroke-width="1.2"/><text x="508.00" y="504.00" font-size="14" fill="#173041" text-anchor="start">13 button aperture</text><text x="70.00" y="545.00" font-size="16" fill="#21648f" text-anchor="start">24 x 24 active display area</text><text x="70.00" y="570.00" font-size="13" fill="#526d7c" text-anchor="start">Screen and window sizes are concept parameters; readability is unverified.</text><text x="28.00" y="599.00" font-size="11" fill="#173041" text-anchor="start">DBA / REV F  |  NOMINAL mm  |  CONCEPT GEOMETRY - NOT A MANUFACTURING RELEASE</text></g></svg>